<?xml version="1.0" encoding="UTF-8"?><svg id="Layer_1" xmlns="http://www.w3.org/2000/svg" viewBox="0 0 557 557"><defs><style>.cls-1{fill:#666769;}.cls-2{fill:#656669;}.cls-3{fill:none;stroke-width:10px;}.cls-3,.cls-4{stroke:#231f20;stroke-miterlimit:10;}.cls-5{fill:#c7c9cb;}.cls-6{fill:#656769;}.cls-4{stroke-width:2px;}.cls-4,.cls-7{fill:#231f20;}.cls-8{fill:#282526;}</style></defs><g><path class="cls-8" d="M353.34,116.96c0-.16,0-.32,0-.48,.08-.29,.23-.58,.23-.87,.01-5.18,.01-10.36,0-15.54,0-.29-.15-.58-.23-.87,0-.08,0-.16,0-.24,.51-.05,1.02-.14,1.53-.14,26.64,0,53.28,0,79.92-.02,3.5,0,6.39,1.35,8.64,3.91,4.3,4.89,5.82,10.86,5.99,17.17,.19,7.19,.11,14.4,.12,21.59,0,61.8,0,123.6,.01,185.39,0,2.03,.16,4.05,.26,6.08,.18,3.56,1.14,6.89,3.05,9.91,2.17,3.44,4.87,5.62,9.38,5.57,18-.17,36-.08,54-.06,2.26,0,4.43,.48,6.23,1.94,2.26,1.82,4.07,4.03,5.34,6.66,1.96,4.06,2.85,8.42,2.86,12.86,.07,35.08,.06,70.16,0,105.24,0,2.9-.4,5.8-.71,8.69-.38,3.61-1.7,6.91-3.68,9.91-2.58,3.9-6.08,6.03-11,6.03-53.64-.06-107.28-.04-160.91-.03-.34,0-.69,.07-1.03,.11,0-.16,0-.32,0-.48,.08-.45,.23-.9,.23-1.35,.02-6.26,.02-12.52,.02-18.78h17.01v-26.8c-.33,0-.6,0-.87,0-5.28,0-10.55,0-15.83,0-.18,0-.37,.08-.55,.12,0-.16,0-.32,0-.48,.08-.37,.23-.74,.23-1.11,.01-8.83,0-17.65,0-26.48,.48-.02,.96-.05,1.43-.05,22.2,0,44.39,0,66.59,0h1.38V170.2c-.51,0-.95,0-1.38,0-22.24,0-44.47,0-66.71,0-.52,0-1.03,.02-1.55,.04,0-.16,0-.32,0-.48,.08-.45,.23-.9,.23-1.35,.02-8.26,.02-16.52,.02-24.77h16.26v-26.8c-5.11,0-10.17,0-15.24,0-.42,0-.85,.07-1.27,.11Zm107.87,362.07v-26.67h-24.94v26.67h24.94Zm41.31-.01v-26.66h-25.03v26.66h25.03Zm-83.94-335.52v-26.61h-25.04v26.61h25.04Zm-27.05,335.49h24.95v-26.62h-24.95v26.62Z"/><path class="cls-2" d="M353.58,424.41c0,8.83,0,17.65,0,26.48,0,.37-.15,.74-.23,1.11,0-9.2,0-18.4,0-27.6,.09-.03,.17-.05,.26-.08,0,0,.03,.06,.03,.06l-.05,.04Z"/><path class="cls-6" d="M353.34,143.6c.08,.01,.17,.03,.25,.04,0,8.26,0,16.52-.02,24.77,0,.45-.15,.9-.23,1.35,0-8.72,0-17.44,0-26.16Z"/><path class="cls-2" d="M353.34,479.12c.08,.01,.17,.03,.25,.04,0,6.26,0,12.52-.02,18.78,0,.45-.15,.9-.23,1.35,0-6.72,0-13.44,0-20.16Z"/><path class="cls-1" d="M353.34,99.2c.08,.29,.23,.58,.23,.87,.01,5.18,.01,10.36,0,15.54,0,.29-.15,.58-.23,.87,0-5.76,0-11.52,0-17.28Z"/><path class="cls-5" d="M353.61,424.32c-.09,.03-.17,.05-.26,.08,0-.08,0-.16,0-.24,.09,.05,.17,.11,.26,.16Z"/></g><rect class="cls-3" x="33.54" y="91.16" width="319.57" height="414.65"/><g><path class="cls-4" d="M147.11,480.83c-.52-.46,2.5-5.18,2.87-5.76,3.71-5.8,5.91-7.06,9.65-11.97,2.2-2.89,4.73-6.26,6.66-11.32,.87-2.27,2.42-6.45,2.49-12.2,.03-2.63-.21-8.58-3.3-14.95-2.3-4.74-5.05-7.41-9.79-11.99-6.93-6.7-8.74-6.22-13.24-11.44-1.63-1.89-5.43-6.39-7.88-13.37-1.23-3.51-4.15-12.19-1.16-22.13,2.11-7.03,6.15-11.39,8.18-13.29,5.73-5.38,11.89-6.67,15.61-7.4,1.56-.31,8.35-1.53,16.91,.76,9.14,2.45,14.97,7.47,16.12,8.49,6.56,5.79,9.54,12.31,10.73,14.99,.7,1.58,2.02,4.58,2.88,8.75,.22,1.07,.73,3.74,.83,13.92,.07,7.3-.16,8.12,.31,11.26,.41,2.75,.89,5.76,2.57,9.19,1.28,2.61,3.31,6.76,7.87,9.04,4.82,2.4,9.3,1.14,10.18,.87,3.4-1.04,5.41-3.16,7.04-4.88,.88-.93,4.41-4.8,6.2-11.42,.48-1.79,1.7-6.94,.19-15.74-2.37-13.82-9.18-23.49-11.27-26.3-8.11-10.9-17.42-15.85-25.49-20.13-5.83-3.1-13.22-6.94-23.36-8.23-6.32-.8-12.87-.51-17.22-.32-6.7,.3-8.52,.88-14.79,.96-4.66,.06-9.47,.12-14.98-.86-11.6-2.07-19.86-7.63-23.31-10-3.46-2.38-10.09-7.02-16.15-15.62-2.02-2.87-6.35-9.11-8.62-17.6-4.53-16.89,.96-35.61,11.45-47.73,8.48-9.8,18.45-13.25,22.05-14.45,9.76-3.23,18.05-2.57,23.86-2.1,9,.72,16,2.98,19.91,4.45,2.41,.91,9.61,3.75,17.86,9.61,2.01,1.43,7.22,5.26,13,11.39,3.8,4.02,3.5,4.43,9.6,11.69,3.42,4.08,6.61,7.53,12.98,14.44,3.9,4.22,7.36,7.9,12.15,12.23,3.81,3.45,5.92,5.02,8.82,6.18,2.61,1.05,6.71,2.7,10.91,.77,3.63-1.67,5.2-5.05,5.5-5.71,1.86-4.2,.73-8.29,.23-10.13-1.43-5.21-4.65-8.37-9.39-12.92-4.66-4.47-5.49-4.16-9.51-7.86-2.58-2.37-7.81-7.27-11.89-15.23-4.34-8.45-5.3-16.29-5.55-20.26-.22-3.43-.59-10.28,1.98-17.91,1.59-4.71,3.59-7.62,5.64-15.36,.45-1.68,.98-3.91,1.43-5.81,1.83-7.65,1.59-7.87,2.52-10.92,1.58-5.18,4.07-9.77,4.07-9.77,1.03-1.87,1.86-3.09,3.27-5.16,2.27-3.32,2.19-2.75,4.81-6.44,2.19-3.09,3.68-5.4,6.48-7.9,.14-.12,.26-.23,.39-.33,1.79-1.45,3.91-3.11,7.03-3.36,1-.08,3.64-.29,5.99,1.52,1.77,1.37,2.48,3.2,3.06,4.72,.41,1.05,.86,2.57,1.18,8.9,.15,3.08,.24,4.95,.18,7.67-.08,3.13-.14,5.8-.8,9.25-.56,2.94-.94,4.91-2.14,7.18-1.43,2.71-2.6,3.13-5.39,6.5-1.75,2.11-2.74,3.71-4.73,6.89-2.89,4.63-4.7,7.53-6.28,11.91-.66,1.84-1.86,5.54-2.44,10.43-.29,2.46-.6,5.13-.22,8.61,.17,1.56,.78,6.57,3.64,11.46,1.77,3.02,2.88,3.41,9.92,9.72,5.7,5.11,8.65,7.78,12,11.69,2.7,3.15,5.21,6.12,7.59,10.76,3.34,6.51,4.33,12.22,4.62,14.21,.36,2.43,1.05,7.32-.06,13.48-.49,2.73-1.79,9.52-6.93,15.85-3.21,3.96-6.54,6.02-8.37,7.14-1.28,.78-7.19,4.27-15.95,5.04-9.25,.81-16.34-1.88-22.11-4.15-10.01-3.93-16.8-9.41-22.2-13.84-5.18-4.25-8.73-7.96-13.88-13.36-6.47-6.77-7.41-8.56-14.83-16.36-6.35-6.68-9.6-10.07-13.07-12.43-8.36-5.67-16.01-7.09-18.68-7.5-4.41-.67-10.23-1.55-16.54,1.35-4.54,2.09-7.13,5.12-7.67,5.77-3.52,4.24-4.49,8.78-4.92,10.93-.43,2.16-1.34,6.72,.19,12,2.07,7.16,7.3,11.03,10.51,13.41,1.39,1.03,7.24,5.19,15.79,6.12,1.22,.13,2.56,.12,3.62,.14,5.98,.1,10.37-.47,11.55-.61,6.55-.78,16.31-.47,23,.36,11.43,1.41,19.81,5.06,24.85,7.3,2.26,1,12,5.43,22.96,14.22,1.93,1.55,14.75,11.67,23.35,25.79,2.69,4.42,6.79,11.26,9.45,21.33,2.52,9.54,2.5,17.28,2.41,20.36-.14,4.75-.51,14.38-5.52,24.8-1.86,3.87-4.18,8.57-9.07,12.85-5.71,5-11.56,6.48-14.37,7.15-9.73,2.34-17.65-.08-20.7-1.05-3.74-1.19-9.69-3.17-15.35-8.83-5.61-5.61-7.88-11.8-8.88-14.6-2.31-6.48-2.49-11.99-2.56-15.05-.19-7.59,1.39-8.61,1.09-16.82-.19-5.13-.35-8.6-2.23-12.69-2.62-5.71-6.84-8.79-8.68-9.97-5.44-3.5-10.58-3.5-12.87-3.47-3.27,.04-7.1,.09-10.55,2.87-3.38,2.72-4.52,6.55-5.41,9.55-.56,1.87-1.66,5.72-1,10.48,.88,6.4,4.42,10.67,7.68,14.6,4.07,4.9,5.32,4.47,10.96,10.71,3.47,3.84,5.52,6.1,7.52,9.73,.9,1.63,4.63,8.67,4.86,18.59,.07,2.83,.14,7.98-2.03,13.83-2.57,6.89-6.98,11.27-12.9,17.14-1.84,1.83-1.59,1.4-6.24,5.81-5.95,5.65-8.31,8.2-8.73,7.83Z"/><g><path class="cls-4" d="M260.65,124.5c.31,.99,.67,2.45,.74,4.23,.05,1.25-.02,3.14-1.57,8.07-.59,1.87-1.43,4.3-2.61,7.09"/><path class="cls-4" d="M268.3,127.27c-.86,.46-2.05,1.22-3.26,2.43-.84,.85-2.02,2.24-4.1,6.93-.79,1.78-1.76,4.15-2.72,7.03"/></g></g><rect class="cls-7" x="10.8" y="59.57" width="363.04" height="34.7"/><rect class="cls-7" x="137.89" y="19.59" width="107.26" height="34.7"/><rect class="cls-7" x="13.55" y="503.86" width="360.29" height="32.82"/></svg>